<svg xmlns="http://www.w3.org/2000/svg" viewBox="0 0 500 700"><g fill="#f5f2e9" stroke="#111" stroke-width="7" stroke-linejoin="round"><circle cx="255" cy="92" r="50"/><path d="M217 139c-32 31-47 88-31 147l-50 99 55 26 61-92 43 85 59-28-53-111c16-49 3-101-35-126z"/><path d="m190 176-91 78 30 42 103-66zm104-4 103 42-16 49-112-30z"/><path d="m194 400-57 214 62 19 78-203zm101 1 29 218 66-5-22-232z"/></g><path d="M181 297h141v28H181z" fill="#ffd400" stroke="#111" stroke-width="7"/><path d="m322 303 74 29-9 20-68-30z" fill="#ffd400" stroke="#111" stroke-width="7"/><path d="M212 142 253 205 295 142M185 284l69-79 65 78" fill="none" stroke="#111" stroke-width="9"/></svg>
