<svg xmlns="http://www.w3.org/2000/svg" viewBox="0 0 120 140" role="img" aria-labelledby="t d">
<title id="t">Escudo provisional Shotoyama</title><desc id="d">Escudo negro y amarillo con una montaña</desc>
<path d="M60 3 111 20v43c0 34-19 59-51 74C28 122 9 97 9 63V20z" fill="#ffd400"/>
<path d="M60 10 104 25v37c0 29-16 51-44 66-28-15-44-37-44-66V25z" fill="#0a0a0a"/>
<circle cx="60" cy="31" r="7" fill="#fff"/><path d="m23 70 22-26 13 13 15-20 25 33z" fill="#ffd400"/>
<path d="M35 79h50v8H35zm8 13h34v7H43z" fill="#fff"/>
<text x="60" y="117" text-anchor="middle" font-family="Arial Black,sans-serif" font-size="12" fill="#ffd400">SHOT</text>
<text x="60" y="129" text-anchor="middle" font-family="Arial Black,sans-serif" font-size="11" fill="#fff">OYAMA</text></svg>
